<svg width="23" height="19" viewBox="0 0 49 40" fill="none" xmlns="http://www.w3.org/2000/svg">
<path d="M49 4.73497C47.1987 5.53929 45.2601 6.08183 43.226 6.32462C45.3028 5.07569 46.8953 3.09737 47.6463 0.737373C45.7037 1.89539 43.5532 2.73567 41.2625 3.18929C39.4294 1.22696 36.8164 0 33.9249 0C28.3737 0 23.8729 4.52116 23.8729 10.0984C23.8729 10.8887 23.9614 11.6591 24.1335 12.3995C15.7783 11.9778 8.37008 7.95823 3.41169 1.84843C2.54633 3.33916 2.05099 5.07369 2.05099 6.92611C2.05099 10.4291 3.82547 13.5205 6.52299 15.331C4.87583 15.278 3.32515 14.8234 1.96943 14.067C1.96843 14.109 1.96843 14.152 1.96843 14.1949C1.96843 19.0868 5.43383 23.1673 10.0331 24.0965C9.18968 24.3263 8.30144 24.4502 7.38437 24.4502C6.73585 24.4502 6.10623 24.3873 5.49252 24.2684C6.77265 28.28 10.4847 31.2005 14.8831 31.2814C11.4426 33.9901 7.10884 35.6047 2.39813 35.6047C1.58748 35.6047 0.786777 35.5568 0 35.4629C4.45011 38.3294 9.73376 40 15.4103 40C33.902 40 44.0128 24.6131 44.0128 11.2684C44.0128 10.8308 44.0038 10.3942 43.9849 9.96053C45.9484 8.53974 47.6532 6.76025 49 4.73497Z" fill="white"/>
</svg>
