<svg width="25" height="19" viewBox="0 0 51 39" fill="none" xmlns="http://www.w3.org/2000/svg">
<path fill-rule="evenodd" clip-rule="evenodd" d="M48.4636 2.8537C49.9924 4.50535 50.4898 8.25661 50.4898 8.25661C50.4898 8.25661 51 12.6583 51 17.0616V21.1876C51 25.5909 50.4898 29.9926 50.4898 29.9926C50.4898 29.9926 49.9908 33.7423 48.4636 35.3907C46.7144 37.3425 44.7761 37.5451 43.6812 37.6595C43.5616 37.672 43.4521 37.6834 43.354 37.696C36.2165 38.2428 25.5 38.262 25.5 38.262C25.5 38.262 12.239 38.1328 8.15936 37.7151C7.96627 37.6766 7.73234 37.6466 7.46751 37.6125C6.17553 37.4464 4.14792 37.1858 2.53645 35.3891C1.00756 33.7407 0.510159 29.991 0.510159 29.991C0.510159 29.991 0 25.5909 0 21.186V17.0601C0 12.6583 0.510159 8.25661 0.510159 8.25661C0.510159 8.25661 1.00916 4.50535 2.53645 2.8537C4.29329 0.894933 6.23804 0.697918 7.33052 0.587243C7.44554 0.575592 7.55111 0.564897 7.64601 0.553204C14.7819 0 25.4872 0 25.4872 0H25.5112C25.5112 0 36.2165 0 43.354 0.553204C43.4489 0.564902 43.5546 0.5756 43.6697 0.587258C44.7624 0.697934 46.7082 0.895016 48.4636 2.8537ZM35.0735 19.131L19.131 28.6965V9.56549L35.0735 19.131Z" fill="white"/>
</svg>
