<svg width="34" height="19" viewBox="0 0 53 30" fill="none" xmlns="http://www.w3.org/2000/svg">
<path d="M50.9203 1.31795H42.3198C41.9688 1.31795 41.6243 1.4129 41.323 1.59268C41.0218 1.77246 40.775 2.03036 40.609 2.33893C40.609 2.33893 37.1788 8.64097 36.077 10.7636C33.1128 16.4738 31.1933 14.6812 31.1933 12.031V2.8933C31.1933 2.12972 30.8893 1.39742 30.348 0.857488C29.8068 0.317556 29.0727 0.0142256 28.3073 0.0142256H21.8408C20.9602 -0.0510921 20.0775 0.109261 19.2765 0.480054C18.4754 0.850847 17.7827 1.41977 17.2642 2.13279C17.2642 2.13279 20.5477 1.60316 20.5477 6.0168C20.5477 7.11126 20.6042 10.2597 20.6557 12.9005C20.6654 13.2896 20.5552 13.6724 20.3399 13.9971C20.1247 14.3217 19.8147 14.5727 19.452 14.7161C19.0892 14.8594 18.691 14.8883 18.3113 14.7988C17.9315 14.7093 17.5885 14.5057 17.3284 14.2155C14.6816 10.5431 12.4891 6.5652 10.7987 2.36824C10.6535 2.05428 10.4211 1.78846 10.1291 1.6023C9.837 1.41613 9.49754 1.31745 9.15096 1.31795C7.28577 1.31795 3.55337 1.31795 1.33683 1.31795C1.12189 1.3165 0.909805 1.36711 0.718801 1.46546C0.527797 1.56381 0.363582 1.70694 0.240264 1.88257C0.116945 2.05819 0.03821 2.26106 0.0108226 2.47374C-0.0165648 2.68642 0.0082143 2.90255 0.0830311 3.10357C2.45578 9.5963 12.6768 30 24.3431 30H29.2535C29.7679 30 30.2614 29.7961 30.6252 29.4332C30.989 29.0702 31.1933 28.578 31.1933 28.0648V25.1069C31.1933 24.7358 31.3022 24.3729 31.5064 24.0628C31.7106 23.7526 32.0014 23.5089 32.3427 23.3616C32.6841 23.2143 33.0613 23.1698 33.4277 23.2337C33.7941 23.2975 34.1337 23.467 34.4048 23.721L40.2821 29.2298C40.81 29.7245 41.507 30 42.2312 30H49.9492C53.6716 30 53.6716 27.4232 51.6421 25.4293C50.2138 24.026 45.0598 18.6065 45.0598 18.6065C44.6184 18.1504 44.3552 17.5518 44.3176 16.9189C44.28 16.2861 44.4706 15.6607 44.8549 15.1557C46.5209 12.9687 49.2458 9.38869 50.4013 7.85503C51.9809 5.75879 54.8397 1.31795 50.9203 1.31795Z" fill="white"/>
</svg>
