<svg width="19" height="19" viewBox="0 0 50 50" fill="none" xmlns="http://www.w3.org/2000/svg">
<path fill-rule="evenodd" clip-rule="evenodd" d="M35.0996 0C39.2998 0 43 1.3999 45.5996 4.1001C48.2002 6.7002 49.5996 10.2998 49.5996 14.5V35.1001C49.5996 39.3999 48.2002 43.1001 45.5 45.7002C42.9004 48.2002 39.2998 49.6001 35 49.6001H14.5996C10.5 49.6001 6.90039 48.2998 4.2002 45.7002C1.40039 43 0 39.2998 0 35V14.5C0 5.7998 5.7998 0 14.5 0H35.0996ZM42.2998 42.3999C44.0996 40.7002 45.2002 38.2002 45.2002 35.1001V14.5C45.2002 11.6001 44.2002 9.1001 42.5 7.2998C40.7002 5.5 38.2002 4.6001 35.2002 4.6001H14.5996C11.5996 4.6001 9 5.5 7.2998 7.2002C5.5 9 4.59961 11.5 4.59961 14.5V35C4.59961 38.1001 5.5 40.6001 7.2998 42.3999C9.09961 44.1001 11.5996 45 14.5996 45H35C38 45 40.5 44.1001 42.2998 42.3999ZM38.1006 14.5C39.7021 14.5 41 13.2017 41 11.6001C41 9.99854 39.7021 8.7002 38.1006 8.7002C36.499 8.7002 35.2002 9.99854 35.2002 11.6001C35.2002 13.2017 36.499 14.5 38.1006 14.5ZM24.7998 11.8999C17.7998 11.8999 12 17.6001 12 24.6997C12 31.7998 17.7002 37.5 24.7998 37.5C31.9004 37.5 37.5996 31.6997 37.5996 24.6997C37.5996 17.6997 31.7998 11.8999 24.7998 11.8999ZM24.7998 32.8999C20.2998 32.8999 16.5996 29.1997 16.5996 24.6997C16.5996 20.1997 20.2998 16.5 24.7998 16.5C29.2998 16.5 33 20.1997 33 24.6997C33 29.1997 29.2998 32.8999 24.7998 32.8999Z" fill="white"/>
</svg>
