<svg width="39" height="39" viewBox="0 0 39 39" fill="none" xmlns="http://www.w3.org/2000/svg">
<path d="M19.5615 27.5057C11.9824 27.5057 5.8125 21.3357 5.8125 13.7566C5.8125 6.16992 11.9824 0 19.5615 0C27.1406 0 33.3105 6.16992 33.3105 13.749C33.3105 21.3357 27.1406 27.5057 19.5615 27.5057ZM19.5615 6.40605C15.5092 6.40605 12.2109 9.7043 12.2109 13.7566C12.2109 17.809 15.5092 21.0996 19.5615 21.0996C23.6139 21.0996 26.9121 17.8014 26.9121 13.7566C26.9121 9.69668 23.6139 6.40605 19.5615 6.40605Z" fill="#EA4E3E"/>
<path d="M19.5611 19.0583C22.4933 19.0583 24.8703 16.6813 24.8703 13.7491C24.8703 10.8169 22.4933 8.43994 19.5611 8.43994C16.629 8.43994 14.252 10.8169 14.252 13.7491C14.252 16.6813 16.629 19.0583 19.5611 19.0583Z" fill="#EA4E3E"/>
<path d="M7.4043 23.1943L1.27246 33.607L7.01582 34.3307L10.4283 39L16.5145 28.6711C12.6145 28.1379 9.59805 26.2793 7.4043 23.1943Z" fill="#EA4E3E"/>
<path d="M31.5967 23.1943L37.7361 33.607L31.9928 34.3307L28.5803 39L22.4941 28.6711C26.3865 28.1379 29.4029 26.2793 31.5967 23.1943Z" fill="#EA4E3E"/>
</svg>
