<svg width="22" height="24" viewBox="0 0 22 24" fill="none" xmlns="http://www.w3.org/2000/svg">
<path d="M11.0341 16.5954C6.46135 16.5954 2.73877 12.8728 2.73877 8.29998C2.73877 3.72258 6.46135 0 11.0341 0C15.6069 0 19.3295 3.72258 19.3295 8.29538C19.3295 12.8728 15.6069 16.5954 11.0341 16.5954ZM11.0341 3.86505C8.58919 3.86505 6.59922 5.85502 6.59922 8.29998C6.59922 10.7449 8.58919 12.7303 11.0341 12.7303C13.4791 12.7303 15.4691 10.7403 15.4691 8.29998C15.4691 5.85043 13.4791 3.86505 11.0341 3.86505Z" fill="#FB5E5E"/>
<path d="M11.0343 11.4986C12.8034 11.4986 14.2376 10.0644 14.2376 8.2953C14.2376 6.52619 12.8034 5.09204 11.0343 5.09204C9.2652 5.09204 7.83105 6.52619 7.83105 8.2953C7.83105 10.0644 9.2652 11.4986 11.0343 11.4986Z" fill="#FB5E5E"/>
<path d="M3.6996 13.9944L0 20.2768L3.46522 20.7134L5.52412 23.5306L9.19615 17.2987C6.84311 16.977 5.02319 15.8557 3.6996 13.9944Z" fill="#FB5E5E"/>
<path d="M18.2957 13.9944L21.9999 20.2768L18.5347 20.7134L16.4757 23.5306L12.8037 17.2987C15.1522 16.977 16.9721 15.8557 18.2957 13.9944Z" fill="#FB5E5E"/>
</svg>
