<svg width="14" height="17" viewBox="0 0 14 17" fill="none" xmlns="http://www.w3.org/2000/svg">
<path d="M14 13.6808C14.0024 12.3683 13.6152 11.0832 12.8851 9.98067C12.155 8.8781 11.1133 8.00519 9.88571 7.4673C10.3543 7.06815 10.7294 6.57549 10.9857 6.02266C11.242 5.46984 11.3736 4.86976 11.3714 4.26305C11.3714 3.13242 10.9109 2.04809 10.0911 1.24862C9.27126 0.449141 8.15937 0 7 0C5.84063 0 4.72874 0.449141 3.90894 1.24862C3.08914 2.04809 2.62858 3.13242 2.62858 4.26305C2.62642 4.86976 2.75796 5.46984 3.01429 6.02266C3.27062 6.57549 3.64575 7.06815 4.11429 7.4673C2.88669 8.00519 1.84497 8.8781 1.1149 9.98067C0.384835 11.0832 -0.00237721 12.3683 1.09808e-05 13.6808C1.09808e-05 14.4888 0.428582 15.6033 2.48572 16.3277C3.93909 16.8053 5.46679 17.0316 7 16.9965C12.1714 16.9965 14 15.2132 14 13.6808ZM7 1.67178C7.52553 1.67178 8.03926 1.82376 8.47623 2.10849C8.91319 2.39322 9.25376 2.79792 9.45488 3.27141C9.65599 3.74491 9.70861 4.26592 9.60608 4.76858C9.50356 5.27123 9.25049 5.73295 8.87888 6.09535C8.50727 6.45774 8.03382 6.70454 7.51838 6.80452C7.00295 6.90451 6.46869 6.85319 5.98316 6.65706C5.49763 6.46094 5.08264 6.12881 4.79067 5.70268C4.4987 5.27655 4.34286 4.77555 4.34286 4.26305C4.34286 3.5758 4.62281 2.9167 5.12112 2.43075C5.61943 1.94479 6.29528 1.67178 7 1.67178ZM7 15.3247C3.88572 15.3247 1.71429 14.4609 1.71429 13.6808C1.71429 12.3137 2.27118 11.0025 3.26244 10.0359C4.2537 9.06917 5.59814 8.52609 7 8.52609C8.40186 8.52609 9.7463 9.06917 10.7376 10.0359C11.7288 11.0025 12.2857 12.3137 12.2857 13.6808C12.2857 14.4609 10.1143 15.3247 7 15.3247Z" fill="white"/>
</svg>
