<svg id="Layer_1" data-name="Layer 1" xmlns="http://www.w3.org/2000/svg" viewBox="0 0 299.34 119.26"><defs><style>.cls-1{fill:#1c2674;}.cls-2{fill:#faa634;}.cls-3{fill:#ee3124;}</style></defs><title>logo_en</title><path class="cls-1" d="M149.49,118.54,134,86.94H122.91v31.59H107.45V39.35h31c16.12,0,25.69,11,25.69,24.24a21.33,21.33,0,0,1-14.46,20.8l17.68,34.14h-17.9Zm-12-65.4H122.91V74.05h14.57c6.78,0,11.23-4.34,11.23-10.46S144.26,53.14,137.48,53.14Z"/><path class="cls-1" d="M209,118.54H197.43L171.29,39.35h16L203.2,91l15.91-51.6h16.11Z"/><path class="cls-1" d="M270.16,119.26a29.2,29.2,0,0,1-21.39-8.69c-8-8-7.79-17.93-7.79-31.63s-.23-23.62,7.79-31.63a29.23,29.23,0,0,1,21.39-8.69c14.81,0,26.4,8.46,29.18,25.06h-15.7c-1.57-6.35-5.57-11.25-13.37-11.25a12.81,12.81,0,0,0-9.91,4.12c-3,3.34-3.9,7.13-3.9,22.39s.9,19.05,3.9,22.39a12.82,12.82,0,0,0,9.91,4.11c7.8,0,11.8-4.9,13.37-11.25h15.7C296.56,110.8,284.86,119.26,270.16,119.26Z"/><polygon class="cls-2" points="0 39.57 22.85 0 45.71 39.57 0 39.57"/><polygon class="cls-1" points="68.52 79.14 45.7 39.53 91.4 39.53 68.52 79.14"/><polygon class="cls-3" points="45.74 118.71 22.88 79.14 0.05 118.72 45.74 118.71"/><polygon class="cls-1" points="68.6 79.14 45.74 118.71 22.9 79.14 68.6 79.14"/><polygon class="cls-1" points="45.73 39.57 22.88 79.14 0.03 39.57 45.73 39.57"/></svg>