<svg xmlns="http://www.w3.org/2000/svg" viewBox="0 0 306.61 118.72"><defs><style>.cls-1{fill:#faa634;}.cls-2{fill:#1c2674;}.cls-3{fill:#ee3124;}</style></defs><polygon class="cls-1" points="0 39.57 22.85 0 45.71 39.57 0 39.57"/><polygon class="cls-2" points="68.52 79.14 45.7 39.53 91.4 39.53 68.52 79.14"/><polygon class="cls-3" points="45.74 118.71 22.88 79.14 0.05 118.72 45.74 118.71"/><polygon class="cls-2" points="68.6 79.14 45.74 118.71 22.9 79.14 68.6 79.14"/><polygon class="cls-2" points="45.73 39.57 22.88 79.14 0.03 39.57 45.73 39.57"/><path class="cls-2" d="M206.86,118.48H173.74V39.35h31.79C221,39.35,230,48,230,61.58a18.28,18.28,0,0,1-9.79,16.34c4.79,2.22,10.89,7.22,10.89,17.78,0,14.78-10.12,22.77-24.22,22.77M204.3,53.14H189.18V71.36H204.3c6.58,0,10.24-3.67,10.24-9.12s-3.66-9.11-10.24-9.11m1,32.11H189.18v19.47h16.11c7,0,10.35-4.46,10.35-9.79s-3.35-9.68-10.35-9.68"/><path class="cls-2" d="M138,88.7H122.81v29.77H107.37V39.35H138c16.35,0,26.12,11.24,26.12,24.68S154.38,88.7,138,88.7m-.77-35.56H122.81V74.81h14.45c7,0,11.44-4.34,11.44-10.78s-4.45-10.89-11.44-10.89"/><polygon class="cls-2" points="288.61 118.53 268.27 82.53 258.06 94.76 258.06 118.53 242.58 118.53 242.58 39.41 258.06 39.41 258.06 73.86 285.94 39.41 304.72 39.41 278.5 70.86 306.61 118.53 288.61 118.53"/></svg>