<svg width="37" height="18" viewBox="0 0 37 18" fill="none" xmlns="http://www.w3.org/2000/svg">
<path fill-rule="evenodd" clip-rule="evenodd" d="M20.1963 7.34159C20.5291 7.76079 20.688 8.298 20.7031 8.8351C20.7357 10.0338 20.0589 11.2539 18.3515 11.2539H16.7854V6.54297H18.3515C18.9509 6.54297 19.4229 6.69752 19.7817 6.94984C19.9421 7.06259 20.0799 7.19486 20.1963 7.34159ZM32.9652 0C35.1006 0 36.8317 1.69505 36.8317 3.78602V14.0108C36.8317 16.1018 35.1006 17.7969 32.9652 17.7969H3.86653C1.73109 17.7969 0 16.1018 0 14.0108V3.78602C0 1.69505 1.73109 0 3.86653 0H32.9652ZM9.62222 10.4164H11.7605C15.449 10.4164 15.449 5.17894 11.7605 5.179C11.1725 5.179 10.5844 5.18161 9.99642 5.18423C9.40839 5.18685 8.82037 5.18947 8.23234 5.18947V12.5625H9.62222V10.4164ZM15.3955 12.5625H18.3515C20.9826 12.5625 22.1421 10.6964 22.11 8.8351C22.0774 7.01668 20.9286 5.23438 18.3515 5.23438H15.3955V12.5625ZM24.6436 6.54297H28.6528V5.23438H23.2537V12.5625H24.6436V9.84062H28.439V8.58437H24.6436V6.54297ZM9.62222 9.10781H11.7605C13.578 9.10781 13.578 6.54297 11.7605 6.54297H9.62222V9.10781Z" fill="#FF2F2F"/>
</svg>
