<svg width="39" height="39" viewBox="0 0 39 39" fill="none" xmlns="http://www.w3.org/2000/svg">
<path fill-rule="evenodd" clip-rule="evenodd" d="M10 10H29V29H10V10ZM0.5 10H5.25V13.5625H0.5V10ZM0.5 17.125H5.25V20.6875H0.5V17.125ZM0.5 24.25H5.25V27.8125H0.5V24.25ZM33.75 10H38.5V13.5625H33.75V10ZM33.75 17.125H38.5V20.6875H33.75V17.125ZM33.75 24.25H38.5V27.8125H33.75V24.25ZM29 0.5V5.25H25.4375V0.5H29ZM21.875 0.5V5.25H18.3125V0.5H21.875ZM14.75 0.5V5.25H11.1875V0.5H14.75ZM27.8125 33.75V38.5H24.25V33.75H27.8125ZM20.6875 33.75V38.5H17.125V33.75H20.6875ZM13.5625 33.75V38.5H10V33.75H13.5625Z" fill="white"/>
</svg>
