<svg width="33" height="35" viewBox="0 0 33 35" fill="none" xmlns="http://www.w3.org/2000/svg">
<path d="M31.3751 21L29.6251 19.9792C27.7292 18.8125 27.7292 16.0417 29.6251 14.875L31.3751 13.8542C32.8334 12.9792 33.2709 11.2292 32.3959 9.91667L30.9376 7.4375C30.0626 5.97917 28.3126 5.54167 27.0001 6.41667L25.2501 7.4375C23.3542 8.60417 20.8751 7.14583 20.8751 4.95833V2.91667C20.8751 1.3125 19.5626 0 17.9584 0H15.0417C13.4376 0 12.1251 1.3125 12.1251 2.91667V4.8125C12.1251 7 9.64589 8.45833 7.75006 7.29167L6.00006 6.41667C4.54172 5.54167 2.79172 6.125 2.06256 7.4375L0.604225 9.91667C-0.124942 11.375 0.312558 13.125 1.62506 14L3.37506 15.0208C5.27089 16.0417 5.27089 18.9583 3.37506 19.9792L1.62506 21C0.166725 21.875 -0.270775 23.625 0.604225 24.9375L2.06256 27.4167C2.93756 28.875 4.68756 29.3125 6.00006 28.4375L7.75006 27.5625C9.64589 26.3958 12.1251 27.8542 12.1251 30.0417V32.0833C12.1251 33.6875 13.4376 35 15.0417 35H17.9584C19.5626 35 20.8751 33.6875 20.8751 32.0833V30.1875C20.8751 28 23.3542 26.5417 25.2501 27.7083L27.0001 28.7292C28.4584 29.6042 30.2084 29.0208 30.9376 27.7083L32.3959 25.2292C33.1251 23.625 32.6876 21.875 31.3751 21ZM16.5001 23.3333C13.2917 23.3333 10.6667 20.7083 10.6667 17.5C10.6667 14.2917 13.2917 11.6667 16.5001 11.6667C19.7084 11.6667 22.3334 14.2917 22.3334 17.5C22.3334 20.7083 19.7084 23.3333 16.5001 23.3333Z" fill="white"/>
</svg>
